<svg width="33" height="51" viewBox="0 0 33 51" fill="none" xmlns="http://www.w3.org/2000/svg">
<path fill-rule="evenodd" clip-rule="evenodd" d="M16.5306 32.2857C25.2692 32.0809 32.2902 24.933 32.2902 16.1451C32.2902 7.22841 25.0618 0 16.1451 0C7.22841 0 0 7.22841 0 16.1451C0 24.5169 6.37196 31.4005 14.5306 32.2105V49.0495C14.5306 49.6017 14.9783 50.0495 15.5306 50.0495C16.0829 50.0495 16.5306 49.6017 16.5306 49.0495V32.2857Z" fill="#134C37"/>
<path d="M17.7802 15.9633L13.7637 11.2139H16.6918C17.1245 11.2139 17.5077 11.2776 17.8303 11.4041C18.1355 11.5212 18.3905 11.6918 18.6091 11.9267C18.839 12.1768 19.0145 12.451 19.1306 12.7425C19.2472 13.0352 19.3083 13.3556 19.3115 13.6957C19.3148 14.0461 19.2609 14.3704 19.1519 14.6598C19.044 14.9426 18.8805 15.1993 18.6663 15.4227C18.5039 15.59 18.318 15.7268 18.1142 15.8287C18.0178 15.8767 17.9175 15.9181 17.8161 15.9513L17.7812 15.9628L17.7802 15.9633ZM13.9986 11.3229L17.8156 15.8364C17.9 15.8064 17.984 15.7715 18.0646 15.7312C18.2575 15.6347 18.4336 15.5056 18.5873 15.347C18.7911 15.1344 18.9469 14.8903 19.0494 14.6211C19.154 14.3442 19.2053 14.0336 19.202 13.6968C19.1987 13.3703 19.1404 13.063 19.0287 12.7829C18.9175 12.5038 18.7491 12.2406 18.5284 12.0008C18.3219 11.779 18.0804 11.6166 17.7905 11.506C17.4799 11.3844 17.1104 11.3234 16.6913 11.3234H13.998L13.9986 11.3229Z" fill="white"/>
<path d="M16.4434 28.0757C13.337 28.0757 10.416 26.8659 8.2186 24.6696C6.0218 22.4728 4.8125 19.5523 4.8125 16.4449C4.8125 13.3374 6.02235 10.4174 8.2186 8.22007C10.416 6.02327 13.3365 4.81396 16.4434 4.81396C19.5503 4.81396 22.4708 6.02381 24.6682 8.22007C26.865 10.418 28.0743 13.3385 28.0743 16.4449C28.0743 19.5512 26.8644 22.4723 24.6682 24.6696C22.4714 26.8664 19.5508 28.0757 16.4434 28.0757ZM16.4434 4.92296C13.3659 4.92296 10.4721 6.12136 8.29599 8.29746C6.1199 10.4741 4.9215 13.3674 4.9215 16.4449C4.9215 19.5223 6.1199 22.4167 8.29599 24.5923C10.4726 26.7683 13.3659 27.9668 16.4434 27.9668C19.5209 27.9668 22.4152 26.7683 24.5908 24.5923C26.7669 22.4156 27.9653 19.5223 27.9653 16.4449C27.9653 13.3674 26.7669 10.4741 24.5908 8.29746C22.4142 6.12136 19.5209 4.92296 16.4434 4.92296Z" fill="white"/>
<path d="M13.0552 10.7114L12.7246 10.9957H13.2952L13.0552 10.7114Z" fill="white"/>
<path d="M13.4124 11.0505H12.5771L13.061 10.6343L13.4124 11.0505ZM12.8717 10.9414H13.1778L13.049 10.7892L12.8717 10.9414Z" fill="white"/>
<path d="M12.4242 11.5942L12.4296 11.2485L12.2549 11.3987L12.4242 11.5942Z" fill="white"/>
<path d="M12.4761 11.7378L12.1777 11.393L12.486 11.1284L12.4761 11.7378ZM12.3316 11.4045L12.3714 11.4503L12.3725 11.369L12.3316 11.4045Z" fill="white"/>
<path d="M11.8708 11.3683L13.0855 10.3252L13.6518 10.9945H16.6938C17.1543 10.9945 17.5642 11.0637 17.9113 11.1994C18.2476 11.3285 18.5293 11.5176 18.7713 11.7776C19.0198 12.0468 19.2089 12.3438 19.3353 12.6605C19.4623 12.9782 19.5288 13.3253 19.5321 13.6921C19.5359 14.0681 19.477 14.4191 19.3577 14.7352C19.2394 15.0458 19.0601 15.3276 18.8247 15.5723C18.6443 15.7581 18.4389 15.9096 18.2121 16.0224C18.0775 16.0889 17.9364 16.1439 17.7925 16.1864L17.7075 16.2115L13.5253 11.2669H12.7024L12.6926 11.9018H12.691L22.9496 23.766L23.7497 23.0788L18.435 17.0786L18.6073 16.9974C18.6312 16.9859 18.6547 16.975 18.6776 16.9636C19.0187 16.7963 19.3234 16.5728 19.5849 16.2993C19.9255 15.9412 20.1735 15.5505 20.3441 15.1041C20.5059 14.673 20.5855 14.1924 20.5812 13.6763C20.5768 13.176 20.4869 12.6997 20.3136 12.2604C20.1403 11.8234 19.8803 11.4163 19.5403 11.05C19.1887 10.6773 18.7669 10.3928 18.2874 10.2053C17.8203 10.0233 17.284 9.93066 16.6938 9.93066H11.3732L11.2354 19.6133H12.2981L12.4185 12.0016L11.8713 11.3683H11.8708Z" fill="white"/>
<path d="M22.9441 23.8431L22.9087 23.8022L12.5972 11.8776L12.6391 11.8634L12.6489 11.2132H13.5509L13.5672 11.2323L17.7265 16.1496L17.7777 16.1344C17.9189 16.0924 18.0573 16.0385 18.1886 15.9736C18.4083 15.8641 18.6094 15.7164 18.7859 15.5344C19.0159 15.2951 19.1914 15.0199 19.3069 14.7158C19.4241 14.4057 19.4813 14.0613 19.4775 13.6929C19.4742 13.3337 19.4094 12.9931 19.2846 12.6809C19.1603 12.3691 18.9739 12.0781 18.7309 11.8149C18.4949 11.5615 18.2202 11.3767 17.8916 11.2508C17.5499 11.1173 17.1466 11.0497 16.6938 11.0497H13.6266L13.0795 10.4034L11.9476 11.3751L12.4724 11.9827V12.0035L12.3508 19.6685H11.1797L11.3192 9.87695H16.6938C17.2905 9.87695 17.8333 9.97069 18.3069 10.1554C18.7941 10.3456 19.2225 10.6345 19.5794 11.0138C19.9244 11.3849 20.1882 11.798 20.3636 12.2416C20.5391 12.6869 20.6307 13.1697 20.635 13.6771C20.6394 14.2008 20.5587 14.6875 20.3947 15.1245C20.2214 15.5785 19.9691 15.9752 19.6241 16.3382C19.3576 16.6167 19.047 16.8445 18.7015 17.014C18.6851 17.0221 18.6688 17.0298 18.6519 17.0379L18.5238 17.0984L23.827 23.0856L22.9436 23.8442L22.9441 23.8431ZM12.747 11.8846L22.955 23.6894L23.6716 23.0736L18.3456 17.0603L18.6044 16.9382C18.6208 16.9306 18.6366 16.923 18.6524 16.9148C18.987 16.7507 19.2873 16.5311 19.5445 16.2614C19.8797 15.9093 20.1238 15.524 20.2922 15.0842C20.4514 14.6602 20.5299 14.1866 20.526 13.6765C20.5217 13.1828 20.4328 12.713 20.2623 12.2803C20.0917 11.8492 19.835 11.4481 19.4998 11.0868C19.1538 10.72 18.7391 10.4405 18.2671 10.2557C17.8061 10.0759 17.2763 9.98486 16.6932 9.98486H11.4266L11.2898 19.5585H12.2435L12.3628 12.0214L11.7933 11.3626L13.0909 10.2481L13.6762 10.9397H16.6932C17.1603 10.9397 17.5766 11.01 17.9303 11.1484C18.2747 11.2808 18.563 11.4743 18.8105 11.7402C19.0628 12.0133 19.2557 12.3163 19.3854 12.64C19.5151 12.9648 19.5827 13.3185 19.586 13.6912C19.5898 14.0738 19.5298 14.4313 19.4083 14.7539C19.2873 15.0717 19.1042 15.3594 18.8633 15.6096C18.678 15.8008 18.4666 15.9556 18.236 16.0706C18.0993 16.1382 17.9548 16.1943 17.8077 16.2379L17.6883 16.2728L13.4997 11.3206H12.7558L12.747 11.8836V11.8846Z" fill="white"/>
<path d="M18.1504 15.9035C18.3624 15.7978 18.5559 15.6555 18.7254 15.4806C18.9483 15.2484 19.1178 14.9825 19.2289 14.6898C19.3418 14.3901 19.3979 14.0549 19.3946 13.6958C19.3913 13.3454 19.3281 13.0146 19.2077 12.7132C19.0878 12.4118 18.9069 12.129 18.6709 11.8728C18.4436 11.6287 18.1782 11.4505 17.8611 11.3289C17.5292 11.1987 17.1368 11.1333 16.6932 11.1333H13.5879L17.7531 16.0583C17.8921 16.0174 18.0251 15.9651 18.1504 15.9035ZM13.8811 11.269H16.6915C17.1177 11.269 17.4937 11.3317 17.8104 11.4554C18.1079 11.5693 18.3564 11.736 18.569 11.9644C18.7941 12.2091 18.9657 12.4772 19.0796 12.7633C19.1941 13.05 19.2535 13.3639 19.2567 13.6969C19.26 14.0391 19.2077 14.3574 19.1003 14.6413C18.9952 14.9171 18.8355 15.1678 18.6262 15.3858C18.4682 15.5487 18.2872 15.6817 18.0889 15.7809C17.9951 15.8272 17.8976 15.8675 17.7978 15.9008L13.8811 11.269H13.88H13.8805H13.8811Z" fill="white"/>
<path d="M17.7346 16.1197L13.4707 11.0781H16.6932C17.1444 11.0781 17.5439 11.1452 17.8812 11.2776C18.206 11.4024 18.4779 11.5844 18.7112 11.8351C18.9526 12.0967 19.1363 12.3855 19.2589 12.6923C19.3821 13.0008 19.4464 13.3381 19.4496 13.6946C19.4529 14.0602 19.3962 14.4014 19.2807 14.7082C19.1668 15.008 18.9935 15.2799 18.7657 15.5175C18.5918 15.6968 18.3935 15.8429 18.1755 15.9513C18.0452 16.0156 17.9084 16.0685 17.7695 16.1093L17.7357 16.1192L17.7346 16.1197ZM13.8206 11.3234L17.7717 15.9949C17.8932 15.9573 18.012 15.9099 18.1264 15.8538C18.333 15.7508 18.5215 15.6123 18.6861 15.4418C18.9041 15.215 19.0692 14.9551 19.1777 14.6695C19.2883 14.3752 19.3428 14.0472 19.3396 13.6951C19.3363 13.3523 19.2747 13.0281 19.1564 12.7321C19.0393 12.4373 18.8622 12.1604 18.63 11.9087C18.4087 11.6705 18.1504 11.4972 17.8409 11.379C17.5161 11.2514 17.1297 11.1871 16.6926 11.1871H13.705L13.7879 11.2847L13.8822 11.1898L13.905 11.2144H16.6915C17.1242 11.2144 17.5073 11.2781 17.83 11.4046C18.1352 11.5217 18.3902 11.6923 18.6087 11.9272C18.8387 12.1773 19.0142 12.4515 19.1303 12.743C19.2469 13.0357 19.3079 13.3561 19.3112 13.6962C19.3145 14.0466 19.2605 14.3709 19.1515 14.6603C19.0436 14.9431 18.8801 15.1998 18.666 15.4232C18.5036 15.5905 18.3177 15.7273 18.1139 15.8292C18.0169 15.8772 17.9172 15.9186 17.8158 15.9519L17.7809 15.9633L13.8565 11.3228H13.8211L13.8206 11.3234ZM13.9988 11.3234L17.8158 15.8369C17.9003 15.8069 17.9842 15.772 18.0649 15.7317C18.2578 15.6352 18.4333 15.5061 18.5875 15.3475C18.7913 15.1349 18.9472 14.8908 19.0496 14.6216C19.1543 14.3447 19.2055 14.0341 19.2022 13.6973C19.199 13.3708 19.1406 13.0635 19.0289 12.7834C18.9177 12.5043 18.7493 12.2411 18.5286 12.0013C18.3221 11.7795 18.0807 11.6171 17.7907 11.5065C17.4801 11.3849 17.1106 11.3239 16.6915 11.3239H13.9982L13.9988 11.3234Z" fill="white"/>
<path d="M19.7824 16.4893C20.148 16.104 20.4151 15.6838 20.5987 15.2026C20.772 14.7393 20.8581 14.226 20.8532 13.6761C20.8489 13.142 20.7524 12.633 20.5666 12.1621C20.3813 11.6935 20.1028 11.2575 19.7388 10.8656C19.3589 10.4629 18.9033 10.1555 18.3856 9.95335C17.8869 9.7588 17.3174 9.66016 16.6929 9.66016H11.1036L10.9619 19.6147H11.0982L11.2382 9.7964H16.6934C17.3005 9.7964 17.8531 9.89177 18.3365 10.0803C18.8368 10.276 19.275 10.5719 19.6396 10.9594C19.9922 11.3387 20.2609 11.7594 20.4401 12.2128C20.6194 12.6673 20.7126 13.16 20.717 13.6777C20.7214 14.2113 20.6385 14.7088 20.4707 15.1552C20.2935 15.6189 20.0358 16.0244 19.6832 16.3955C19.4107 16.6811 19.093 16.9133 18.7387 17.0876C18.712 17.1007 18.6853 17.1138 18.6575 17.1269L23.9433 23.0944L22.9351 23.9603L12.5538 11.954L12.4323 19.6147H12.5685L12.684 12.3131L22.8315 24.0486L22.9203 24.1516H22.9214L24.1373 23.1075L18.8777 17.1699C19.2145 16.9934 19.5186 16.765 19.7818 16.4893H19.7824Z" fill="white"/>
<path d="M13.8829 11.2681L13.8809 11.2701H13.8849L13.8829 11.2681Z" fill="white"/>
<path d="M14.0042 11.3241H13.75L13.8831 11.1904L14.0042 11.3241Z" fill="white"/>
<path d="M11.3733 9.9316H16.6939C17.2841 9.9316 17.8204 10.0242 18.2874 10.2063C18.767 10.3937 19.1888 10.6782 19.5403 11.051C19.8804 11.4172 20.1403 11.8243 20.3136 12.2614C20.4869 12.7006 20.5769 13.1769 20.5812 13.6772C20.5856 14.1933 20.506 14.674 20.3442 15.1051C20.1736 15.5514 19.9256 15.9421 19.585 16.3002C19.3234 16.5738 19.0188 16.7972 18.6776 16.9645C18.6547 16.976 18.6313 16.9869 18.6073 16.9983L18.4351 17.0795L23.7497 23.0797L22.9497 23.7669L12.6911 11.9033H12.6927L12.7025 11.2679H13.5254L17.7076 16.2125L17.7926 16.1874C17.9365 16.1449 18.0776 16.0898 18.2122 16.0233C18.4389 15.9105 18.6444 15.759 18.8248 15.5732C19.0602 15.3285 19.2395 15.0467 19.3578 14.7361C19.4771 14.42 19.536 14.0691 19.5321 13.693C19.5289 13.3263 19.4624 12.9791 19.3354 12.6614C19.209 12.3448 19.0199 12.0477 18.7714 11.7785C18.5294 11.5186 18.2476 11.3295 17.9114 11.2003C17.5642 11.0646 17.1544 10.9954 16.6939 10.9954H13.6518L13.0856 10.3262L11.8709 11.3692L12.418 12.0025L12.2976 19.6142H12.4327L12.5543 11.9535L12.0622 11.3845L13.0693 10.5196L13.5875 11.1327H16.6928C17.1364 11.1327 17.5288 11.1981 17.8607 11.3284C18.1779 11.4499 18.4433 11.6281 18.6705 11.8723C18.9065 12.1284 19.0874 12.4112 19.2073 12.7126C19.3278 13.014 19.391 13.3448 19.3943 13.6952C19.3975 14.0543 19.3414 14.3895 19.2286 14.6892C19.1174 14.9819 18.9479 15.2478 18.725 15.48C18.5555 15.6549 18.3621 15.7972 18.1501 15.9029C18.0247 15.9645 17.8918 16.0168 17.7528 16.0577L13.5875 11.1327H12.5673L12.5543 11.9535L22.9355 23.9593L23.9437 23.0939L18.658 17.1264C18.6858 17.1133 18.7125 17.1002 18.7392 17.0871C19.0934 16.9127 19.4112 16.6806 19.6837 16.395C20.0363 16.0239 20.294 15.6184 20.4711 15.1547C20.639 14.7083 20.7218 14.2108 20.7175 13.6772C20.7131 13.1595 20.6199 12.6668 20.4406 12.2123C20.2613 11.7589 19.9927 11.3382 19.6401 10.9589C19.2755 10.5714 18.8373 10.2755 18.337 10.0798C17.8536 9.89127 17.301 9.7959 16.6939 9.7959H11.2387L11.0986 19.6142H11.2354L11.3733 9.9316Z" fill="white"/>
<path d="M22.9703 24.0007L22.9344 23.9598L22.894 23.9947L12.6065 12.0973L12.4866 19.6687H12.2425L12.2436 19.6131L12.3634 12.0221L11.7939 11.3632L13.0915 10.2488L13.6768 10.9403H16.6938C17.1609 10.9403 17.5772 11.0106 17.9309 11.1491C18.2754 11.2815 18.5636 11.475 18.8111 11.7409C19.0628 12.0139 19.2563 12.3169 19.386 12.6407C19.5157 12.9655 19.5833 13.3192 19.5866 13.6919C19.5904 14.0745 19.5304 14.432 19.4089 14.7546C19.2879 15.0723 19.1048 15.3601 18.8639 15.6102C18.6786 15.8015 18.4672 15.9563 18.2367 16.0713C18.0999 16.1389 17.9555 16.195 17.8083 16.2386L17.689 16.2735L13.5003 11.3213H12.7564L12.7477 11.8842L22.9556 23.689L23.6723 23.0731L18.3462 17.0599L18.6051 16.9378C18.6214 16.9302 18.6372 16.9225 18.653 16.9144C18.9876 16.7503 19.2879 16.5307 19.5451 16.2609C19.8803 15.9089 20.1245 15.5236 20.2929 15.0838C20.452 14.6598 20.5305 14.1862 20.5267 13.6761C20.5223 13.1824 20.4335 12.7126 20.2629 12.2799C20.0923 11.8488 19.8356 11.4477 19.5005 11.0864C19.1544 10.7196 18.7397 10.44 18.2677 10.2553C17.8067 10.0755 17.277 9.98444 16.6938 9.98444H11.4272L11.2888 19.667H11.043L11.1847 9.73975H16.6938C17.308 9.73975 17.8672 9.83675 18.3566 10.0275C18.8639 10.2259 19.3092 10.5261 19.6798 10.9202C20.0367 11.3044 20.3098 11.7316 20.4912 12.1911C20.6733 12.6521 20.7675 13.1513 20.7719 13.6756C20.7763 14.2162 20.6923 14.7203 20.5223 15.1726C20.343 15.6429 20.0814 16.0544 19.7234 16.4315C19.4476 16.7204 19.125 16.9574 18.7637 17.1351C18.7582 17.1378 18.7528 17.1405 18.7473 17.1433L24.0221 23.0982L22.972 24.0001L22.9703 24.0007ZM12.6092 11.9333L22.9414 23.8819L23.8657 23.0879L18.5686 17.1073L18.6345 17.0762C18.6617 17.0631 18.6884 17.0501 18.7146 17.0375C19.0645 16.8653 19.3768 16.6364 19.6438 16.3569C19.9915 15.9906 20.2454 15.5906 20.4198 15.1345C20.5855 14.6947 20.6667 14.2042 20.6629 13.6767C20.6585 13.166 20.567 12.6799 20.3899 12.2314C20.2133 11.785 19.9473 11.3687 19.6002 10.9948C19.2411 10.6133 18.8094 10.3218 18.3173 10.1294C17.8405 9.94357 17.2944 9.84929 16.6938 9.84929H11.292L11.1536 19.5586H11.1814L11.3198 9.87599H16.6944C17.2911 9.87599 17.8339 9.96973 18.3075 10.1545C18.7947 10.3447 19.2231 10.6335 19.58 11.0128C19.925 11.3839 20.1888 11.797 20.3642 12.2406C20.5397 12.6859 20.6313 13.1687 20.6356 13.6761C20.64 14.1998 20.5594 14.6865 20.3953 15.1236C20.222 15.5775 19.9697 15.9743 19.6247 16.3372C19.3582 16.6157 19.0476 16.8435 18.7021 17.013C18.6857 17.0212 18.6694 17.0288 18.6525 17.037L18.5244 17.0975L23.8276 23.0846L22.9442 23.8432L22.9087 23.8023L12.6103 11.8924V11.9333H12.6092ZM12.3531 19.5591H12.3793L12.4997 11.9731L11.9852 11.3779L13.0757 10.4417L13.6131 11.0777H16.6927C17.144 11.0777 17.5435 11.1447 17.8808 11.2771C18.2056 11.4019 18.4775 11.5839 18.7108 11.8346C18.9522 12.0962 19.1359 12.3851 19.2585 12.6919C19.3817 13.0003 19.446 13.3377 19.4492 13.6941C19.4525 14.0598 19.3958 14.4009 19.2803 14.7078C19.1664 15.0075 18.9931 15.2794 18.7653 15.517C18.5914 15.6963 18.3931 15.8424 18.1751 15.9508C18.0443 16.0152 17.908 16.068 17.7691 16.1089L17.7353 16.1187L13.5635 11.1861H12.6218L12.6109 11.8722L12.6398 11.8624L12.6496 11.2123H13.5515L13.5678 11.2313L17.7271 16.1487L17.7778 16.1334C17.9189 16.0914 18.0574 16.0375 18.1887 15.9726C18.4083 15.8631 18.6094 15.7154 18.786 15.5334C19.016 15.2941 19.1915 15.0189 19.307 14.7148C19.4242 14.4047 19.4814 14.0603 19.4776 13.6919C19.4743 13.3328 19.4094 12.9922 19.2846 12.6799C19.1604 12.3682 18.974 12.0772 18.731 11.8139C18.495 11.5605 18.2203 11.3758 17.8917 11.2499C17.55 11.1164 17.1467 11.0488 16.6938 11.0488H13.6267L13.0795 10.4024L11.9476 11.3741L12.4724 11.9818V12.0025L12.3525 19.5586L12.3531 19.5591ZM13.7052 11.1867L17.7713 15.9944C17.8928 15.9568 18.0116 15.9094 18.126 15.8533C18.3326 15.7503 18.5206 15.6119 18.6857 15.4413C18.9037 15.2146 19.0688 14.9546 19.1773 14.6691C19.2879 14.3748 19.3424 14.0467 19.3391 13.6946C19.3359 13.3519 19.2743 13.0276 19.156 12.7317C19.0389 12.4368 18.8617 12.16 18.6296 11.9082C18.4083 11.6701 18.15 11.4968 17.8405 11.3785C17.5157 11.251 17.1293 11.1867 16.6922 11.1867H13.7046H13.7052ZM12.1389 11.3899L12.5019 11.8096L12.5133 11.0777H13.4697L13.0627 10.5964L12.1389 11.3899Z" fill="white"/>
<path d="M13.5879 11.1321L13.0696 10.519L12.0625 11.3839L12.5546 11.9529L12.5677 11.1321H13.5879ZM12.7241 10.9954L13.0544 10.7114L13.2941 10.9954H12.7236H12.7241ZM12.4238 11.5932L12.2549 11.3981L12.4293 11.2482L12.4238 11.5932Z" fill="white"/>
<path d="M12.6066 12.0975L11.9854 11.3787L13.0758 10.4424L13.7058 11.1874H12.6219L12.6072 12.0975H12.6066ZM12.139 11.3906L12.502 11.8103L12.5134 11.0784H13.4699L13.0628 10.5972L12.139 11.3906ZM12.4758 11.7372L12.1777 11.3928L12.4856 11.1285L12.4758 11.7372ZM12.3314 11.4043L12.3712 11.45L12.3723 11.3688L12.3314 11.4043ZM13.411 11.0506H12.7232V10.9955L12.6884 10.9547L13.0606 10.6348L13.4116 11.0506H13.411ZM12.8709 10.9416H13.1767L13.0481 10.7895L12.8709 10.9416Z" fill="white"/>
<path d="M24.977 7.91161H24.9775C22.7949 5.72844 19.7757 4.37744 16.4448 4.37744C13.1139 4.37744 10.0953 5.72844 7.9121 7.91107C5.72893 10.0942 4.37793 13.114 4.37793 16.4443C4.37793 19.7747 5.72893 22.7944 7.91156 24.977C10.0942 27.1596 13.1145 28.5106 16.4443 28.5106C19.7741 28.5106 22.7943 27.1596 24.977 24.977C27.1596 22.7944 28.5106 19.7752 28.5106 16.4443C28.5106 13.1134 27.1596 10.0948 24.977 7.91161ZM24.6304 24.6304C22.4439 26.8169 19.537 28.0207 16.4443 28.0207C13.3515 28.0207 10.4446 26.8163 8.25816 24.6304C6.07172 22.444 4.86786 19.5371 4.86786 16.4443C4.86786 13.3516 6.07226 10.4447 8.25816 8.25822C10.4452 6.07177 13.3526 4.86792 16.4443 4.86792C19.537 4.86792 22.4439 6.07232 24.6304 8.25822C26.8163 10.4452 28.0207 13.3516 28.0207 16.4443C28.0207 19.5371 26.8163 22.444 24.6304 24.6304Z" fill="white"/>
<path d="M16.4441 28.565C13.2058 28.565 10.1616 27.3044 7.87267 25.0155C5.58377 22.7266 4.32324 19.6824 4.32324 16.4441C4.32324 13.2059 5.58377 10.1616 7.87322 7.87219C10.1632 5.58329 13.2069 4.32275 16.4446 4.32275C19.6823 4.32275 22.7271 5.58329 25.016 7.87219L25.0563 7.91252H25.0558C27.3196 10.1981 28.5649 13.2249 28.5649 16.4441C28.5649 19.6633 27.3044 22.7266 25.0155 25.0155C22.7266 27.3044 19.6823 28.565 16.4441 28.565ZM16.4446 4.43175C13.2358 4.43175 10.2193 5.68084 7.95061 7.94957C5.68187 10.2183 4.43224 13.2348 4.43224 16.4441C4.43224 19.6535 5.68132 22.6699 7.95006 24.9381C10.2183 27.2063 13.2352 28.456 16.4441 28.456C19.6529 28.456 22.6699 27.2069 24.9381 24.9381C27.2063 22.6699 28.4559 19.6529 28.4559 16.4441C28.4559 13.2353 27.2068 10.2189 24.9381 7.95012L24.8977 7.90979C22.6339 5.66612 19.6344 4.43229 16.4441 4.43229L16.4446 4.43175ZM16.4441 28.075C13.3377 28.075 10.4166 26.8652 8.21928 24.6689C6.02248 22.4721 4.81318 19.5516 4.81318 16.4441C4.81318 13.3367 6.02302 10.4167 8.21928 8.21934C10.4166 6.02254 13.3372 4.81323 16.4441 4.81323C19.551 4.81323 22.4715 6.02308 24.6689 8.21934C26.8657 10.4172 28.075 13.3378 28.075 16.4441C28.075 19.5505 26.8651 22.4716 24.6689 24.6689C22.4721 26.8657 19.5515 28.075 16.4441 28.075ZM16.4441 4.92223C13.3666 4.92223 10.4728 6.12063 8.29667 8.29672C6.12058 10.4734 4.92217 13.3666 4.92217 16.4441C4.92217 19.5216 6.12058 22.416 8.29667 24.5915C10.4733 26.7676 13.3666 27.966 16.4441 27.966C19.5215 27.966 22.4159 26.7676 24.5915 24.5915C26.7676 22.4149 27.966 19.5216 27.966 16.4441C27.966 13.3666 26.7676 10.4739 24.5915 8.29672C22.4148 6.12063 19.5215 4.92223 16.4441 4.92223Z" fill="white"/>
<path d="M25.5315 7.35813C23.2071 5.02836 19.9961 3.5918 16.4445 3.5918C12.8929 3.5918 9.68137 5.0289 7.35813 7.35813C5.02836 9.68191 3.5918 12.8995 3.5918 16.4445C3.5918 19.9896 5.03381 23.2071 7.35813 25.5315C9.68191 27.8612 12.8984 29.2973 16.4445 29.2973C19.9907 29.2973 23.2071 27.8552 25.5315 25.5315C27.8612 23.2071 29.2973 19.9901 29.2973 16.4445C29.2973 12.8989 27.8552 9.68191 25.5315 7.35813ZM24.9767 24.9772C22.7941 27.1599 19.7738 28.5109 16.444 28.5109C13.1142 28.5109 10.0939 27.1599 7.91128 24.9772C5.72865 22.7946 4.37765 19.7749 4.37765 16.4445C4.37765 13.1142 5.72865 10.0945 7.91183 7.91128C10.095 5.72865 13.1136 4.37765 16.4445 4.37765C19.7754 4.37765 22.7946 5.72865 24.9772 7.91128H24.9767C27.1593 10.095 28.5103 13.1136 28.5103 16.4445C28.5103 19.7754 27.1593 22.7946 24.9767 24.9772Z" fill="white"/>
<path d="M16.4443 29.3511C12.9925 29.3511 9.75202 28.0083 7.31925 25.5695C4.88048 23.1302 3.53711 19.8897 3.53711 16.4438C3.53711 12.998 4.88048 9.75153 7.31925 7.31876C9.75202 4.87999 12.993 3.53662 16.4443 3.53662C19.8957 3.53662 23.1367 4.87999 25.57 7.31876C28.0087 9.75753 29.3516 12.998 29.3516 16.4438C29.3516 19.8897 28.0087 23.1362 25.57 25.5695C23.1307 28.0083 19.8897 29.3511 16.4443 29.3511ZM16.4443 3.64562C13.0219 3.64562 9.8087 4.97754 7.39663 7.39615C4.97803 9.80821 3.6461 13.0214 3.6461 16.4438C3.6461 19.8663 4.97803 23.074 7.39663 25.4921C9.8087 27.9102 13.0219 29.2421 16.4443 29.2421C19.8668 29.2421 23.074 27.9102 25.4926 25.4921C27.9106 23.0795 29.2426 19.8663 29.2426 16.4438C29.2426 13.0214 27.9106 9.81421 25.4926 7.39615C23.08 4.97754 19.8662 3.64562 16.4443 3.64562ZM16.4438 28.5647C13.2055 28.5647 10.1613 27.3041 7.8724 25.0152C5.5835 22.7263 4.32297 19.6821 4.32297 16.4438C4.32297 13.2056 5.5835 10.1614 7.87294 7.87191C10.1629 5.58301 13.2066 4.32248 16.4443 4.32248C19.682 4.32248 22.7268 5.58301 25.0157 7.87191L25.0561 7.91224H25.0555C27.3193 10.1979 28.5646 13.2247 28.5646 16.4438C28.5646 19.663 27.3041 22.7263 25.0152 25.0152C22.7263 27.3041 19.682 28.5647 16.4438 28.5647ZM16.4443 4.43147C13.2355 4.43147 10.2191 5.68056 7.95033 7.9493C5.68159 10.218 4.43196 13.2345 4.43196 16.4438C4.43196 19.6532 5.68105 22.6697 7.94979 24.9379C10.218 27.206 13.235 28.4557 16.4438 28.4557C19.6526 28.4557 22.6696 27.2066 24.9378 24.9379C27.206 22.6697 28.4556 19.6527 28.4556 16.4438C28.4556 13.235 27.2065 10.2186 24.9378 7.94984L24.8975 7.90951C22.6336 5.66584 19.6341 4.43202 16.4438 4.43202L16.4443 4.43147Z" fill="white"/>
</svg>
