<svg width="22" height="20" viewBox="0 0 22 20" fill="none" xmlns="http://www.w3.org/2000/svg">
<path d="M20.8082 2.18699L14.4082 0.0536521H14.3335C14.2839 0.0486619 14.2339 0.0486619 14.1842 0.0536521H13.7255L7.66687 2.13365L1.6082 0.0536521C1.44779 0.000757778 1.27711 -0.0132862 1.11021 0.0126759C0.943311 0.038638 0.784963 0.103864 0.648199 0.202986C0.510341 0.301136 0.397815 0.430679 0.319916 0.580913C0.242017 0.731147 0.200981 0.897759 0.200199 1.06699V16.0003C0.199622 16.2239 0.269339 16.4421 0.399497 16.6239C0.529655 16.8058 0.71367 16.9421 0.925532 17.0137L7.32553 19.147C7.54041 19.2171 7.77199 19.2171 7.98687 19.147L14.0669 17.1203L20.1255 19.2003C20.2388 19.2157 20.3536 19.2157 20.4669 19.2003C20.6899 19.2035 20.9076 19.1321 21.0855 18.9977C21.2234 18.8995 21.3359 18.77 21.4138 18.6197C21.4917 18.4695 21.5328 18.3029 21.5335 18.1337V3.20032C21.5341 2.9767 21.4644 2.75855 21.3342 2.57671C21.2041 2.39488 21.0201 2.25854 20.8082 2.18699ZM6.6002 16.651L2.33353 15.2323V2.54965L6.6002 3.96832V16.651ZM13.0002 15.2323L8.73353 16.651V3.96832L13.0002 2.54965V15.2323ZM19.4002 16.651L15.1335 15.2323V2.54965L19.4002 3.96832V16.651Z" fill="#134C37"/>
</svg>
