<svg width="30" height="30" viewBox="0 0 30 30" fill="none" xmlns="http://www.w3.org/2000/svg">
<path d="M7.17285 2.48644C6.92442 2.49032 6.68769 2.59265 6.51466 2.77095C6.34163 2.94925 6.24644 3.18894 6.25 3.43737V15.8165C5.60051 15.9909 5.01231 16.2705 4.61182 16.7211C4.02333 17.3831 3.75 18.229 3.75 19.0624C3.75 19.8957 4.02333 20.7416 4.61182 21.4037C5.01231 21.8542 5.60051 22.1339 6.25 22.3082V26.5624C6.24824 26.6866 6.27119 26.8099 6.31752 26.9252C6.36384 27.0405 6.43262 27.1454 6.51985 27.2339C6.60708 27.3224 6.71102 27.3926 6.82564 27.4406C6.94025 27.4885 7.06326 27.5132 7.1875 27.5132C7.31174 27.5132 7.43475 27.4885 7.54936 27.4406C7.66398 27.3926 7.76792 27.3224 7.85515 27.2339C7.94238 27.1454 8.01116 27.0405 8.05748 26.9252C8.10381 26.8099 8.12676 26.6866 8.125 26.5624V22.3082C8.77449 22.1339 9.36269 21.8542 9.76318 21.4037C10.3517 20.7416 10.625 19.8957 10.625 19.0624C10.625 18.229 10.3517 17.3831 9.76318 16.7211C9.36269 16.2705 8.77449 15.9909 8.125 15.8165V3.43737C8.1268 3.31189 8.10339 3.18733 8.05616 3.07106C8.00894 2.9548 7.93885 2.8492 7.85006 2.76052C7.76126 2.67184 7.65557 2.60189 7.53925 2.55481C7.42292 2.50773 7.29833 2.48448 7.17285 2.48644ZM14.9854 2.48644C14.7369 2.49032 14.5002 2.59265 14.3272 2.77095C14.1541 2.94925 14.0589 3.18894 14.0625 3.43737V6.44152C13.413 6.61588 12.8248 6.89551 12.4243 7.34606C11.8358 8.00811 11.5625 8.85404 11.5625 9.68737C11.5625 10.5207 11.8358 11.3666 12.4243 12.0287C12.8248 12.4792 13.413 12.7589 14.0625 12.9332V26.5624C14.0607 26.6866 14.0837 26.8099 14.13 26.9252C14.1763 27.0405 14.2451 27.1454 14.3324 27.2339C14.4196 27.3224 14.5235 27.3926 14.6381 27.4406C14.7528 27.4885 14.8758 27.5132 15 27.5132C15.1242 27.5132 15.2472 27.4885 15.3619 27.4406C15.4765 27.3926 15.5804 27.3224 15.6676 27.2339C15.7549 27.1454 15.8237 27.0405 15.87 26.9252C15.9163 26.8099 15.9393 26.6866 15.9375 26.5624V12.9332C16.587 12.7589 17.1752 12.4792 17.5757 12.0287C18.1642 11.3666 18.4375 10.5207 18.4375 9.68737C18.4375 8.85404 18.1642 8.00811 17.5757 7.34606C17.1752 6.89551 16.587 6.61588 15.9375 6.44152V3.43737C15.9393 3.31189 15.9159 3.18733 15.8687 3.07106C15.8214 2.9548 15.7513 2.8492 15.6626 2.76052C15.5738 2.67184 15.4681 2.60189 15.3517 2.55481C15.2354 2.50773 15.1108 2.48448 14.9854 2.48644ZM22.7979 2.48644C22.5494 2.49032 22.3127 2.59265 22.1397 2.77095C21.9666 2.94925 21.8714 3.18894 21.875 3.43737V17.0665C21.2255 17.2409 20.6373 17.5205 20.2368 17.9711C19.6483 18.6331 19.375 19.479 19.375 20.3124C19.375 21.1457 19.6483 21.9916 20.2368 22.6537C20.6373 23.1042 21.2255 23.3839 21.875 23.5582V26.5624C21.8732 26.6866 21.8962 26.8099 21.9425 26.9252C21.9888 27.0405 22.0576 27.1454 22.1448 27.2339C22.2321 27.3224 22.336 27.3926 22.4506 27.4406C22.5653 27.4885 22.6883 27.5132 22.8125 27.5132C22.9367 27.5132 23.0597 27.4885 23.1744 27.4406C23.289 27.3926 23.3929 27.3224 23.4802 27.2339C23.5674 27.1454 23.6362 27.0405 23.6825 26.9252C23.7288 26.8099 23.7518 26.6866 23.75 26.5624V23.5582C24.3995 23.3839 24.9877 23.1042 25.3882 22.6537C25.9767 21.9916 26.25 21.1457 26.25 20.3124C26.25 19.479 25.9767 18.6331 25.3882 17.9711C24.9877 17.5205 24.3995 17.2409 23.75 17.0665V3.43737C23.7518 3.31189 23.7284 3.18733 23.6812 3.07106C23.6339 2.9548 23.5638 2.8492 23.4751 2.76052C23.3863 2.67184 23.2806 2.60189 23.1642 2.55481C23.0479 2.50773 22.9233 2.48448 22.7979 2.48644ZM14.9414 8.13586C14.9804 8.1383 15.0196 8.1383 15.0586 8.13586C15.6125 8.15063 15.9394 8.32694 16.1743 8.59118C16.4192 8.86663 16.5625 9.2707 16.5625 9.68737C16.5625 10.104 16.4192 10.5081 16.1743 10.7836C15.9295 11.059 15.599 11.2499 15 11.2499C14.401 11.2499 14.0705 11.059 13.8257 10.7836C13.5808 10.5081 13.4375 10.104 13.4375 9.68737C13.4375 9.2707 13.5808 8.86663 13.8257 8.59118C14.0606 8.32694 14.3875 8.15062 14.9414 8.13586ZM7.12891 17.5109C7.16793 17.5133 7.20707 17.5133 7.24609 17.5109C7.79996 17.5256 8.12694 17.7019 8.36182 17.9662C8.60667 18.2416 8.75 18.6457 8.75 19.0624C8.75 19.479 8.60667 19.8831 8.36182 20.1586C8.12694 20.4228 7.79996 20.5991 7.24609 20.6139C7.20707 20.6114 7.16793 20.6114 7.12891 20.6139C6.57504 20.5991 6.24806 20.4228 6.01318 20.1586C5.76834 19.8831 5.625 19.479 5.625 19.0624C5.625 18.6457 5.76834 18.2416 6.01318 17.9662C6.24806 17.7019 6.57504 17.5256 7.12891 17.5109ZM22.7539 18.7609C22.7929 18.7633 22.8321 18.7633 22.8711 18.7609C23.425 18.7756 23.7519 18.9519 23.9868 19.2162C24.2317 19.4916 24.375 19.8957 24.375 20.3124C24.375 20.729 24.2317 21.1331 23.9868 21.4086C23.7519 21.6728 23.425 21.8491 22.8711 21.8639C22.8321 21.8614 22.7929 21.8614 22.7539 21.8639C22.2 21.8491 21.8731 21.6728 21.6382 21.4086C21.3933 21.1331 21.25 20.729 21.25 20.3124C21.25 19.8957 21.3933 19.4916 21.6382 19.2162C21.8731 18.9519 22.2 18.7756 22.7539 18.7609Z" fill="#134C37"/>
</svg>
