<svg width="287" height="287" viewBox="0 0 287 287" fill="none" xmlns="http://www.w3.org/2000/svg">
<path d="M64.9954 217.924L58.2509 205.678H56.3495V217.924H48.457V185.481H61.7188C64.2689 185.481 66.4454 185.932 68.2481 186.832C70.0478 187.726 71.3961 188.949 72.29 190.503C73.1809 192.058 73.6293 193.789 73.6293 195.693C73.6293 197.854 73.0194 199.783 71.7997 201.481C70.5859 203.173 68.7982 204.372 66.4304 205.08L73.9163 217.924H64.9954ZM56.3495 200.082H61.2524C62.7024 200.082 63.7876 199.732 64.5051 199.029C65.2286 198.321 65.5933 197.316 65.5933 196.016C65.5933 194.79 65.2286 193.822 64.5051 193.11C63.7876 192.401 62.7024 192.046 61.2524 192.046H56.3495V200.082Z" fill="#FEFAF9"/>
<path d="M101.674 218.246C98.6274 218.246 95.8322 217.541 93.291 216.13C90.7469 214.713 88.7289 212.731 87.2401 210.186C85.7483 207.645 85.0039 204.787 85.0039 201.612C85.0039 198.44 85.7483 195.591 87.2401 193.062C88.7289 190.536 90.7469 188.566 93.291 187.155C95.8322 185.738 98.6274 185.026 101.674 185.026C104.726 185.026 107.524 185.738 110.069 187.155C112.61 188.566 114.613 190.536 116.072 193.062C117.537 195.591 118.272 198.44 118.272 201.612C118.272 204.787 117.531 207.645 116.048 210.186C114.571 212.731 112.571 214.713 110.045 216.13C107.515 217.541 104.726 218.246 101.674 218.246ZM101.674 211.035C104.263 211.035 106.338 210.174 107.892 208.452C109.447 206.725 110.224 204.443 110.224 201.612C110.224 198.751 109.447 196.467 107.892 194.76C106.338 193.047 104.263 192.189 101.674 192.189C99.0579 192.189 96.9742 193.038 95.4196 194.736C93.865 196.428 93.0877 198.718 93.0877 201.612C93.0877 204.476 93.865 206.763 95.4196 208.476C96.9742 210.183 99.0579 211.035 101.674 211.035Z" fill="#FEFAF9"/>
<path d="M145.751 218.246C142.705 218.246 139.909 217.541 137.368 216.13C134.824 214.713 132.806 212.731 131.317 210.186C129.825 207.645 129.081 204.787 129.081 201.612C129.081 198.44 129.825 195.591 131.317 193.062C132.806 190.536 134.824 188.566 137.368 187.155C139.909 185.738 142.705 185.026 145.751 185.026C148.803 185.026 151.602 185.738 154.146 187.155C156.687 188.566 158.69 190.536 160.149 193.062C161.614 195.591 162.349 198.44 162.349 201.612C162.349 204.787 161.608 207.645 160.125 210.186C158.648 212.731 156.648 214.713 154.122 216.13C151.593 217.541 148.803 218.246 145.751 218.246ZM145.751 211.035C148.34 211.035 150.415 210.174 151.969 208.452C153.524 206.725 154.301 204.443 154.301 201.612C154.301 198.751 153.524 196.467 151.969 194.76C150.415 193.047 148.34 192.189 145.751 192.189C143.135 192.189 141.051 193.038 139.497 194.736C137.942 196.428 137.165 198.718 137.165 201.612C137.165 204.476 137.942 206.763 139.497 208.476C141.051 210.183 143.135 211.035 145.751 211.035Z" fill="#FEFAF9"/>
<path d="M186.646 185.481C190.066 185.481 193.049 186.162 195.603 187.525C198.162 188.883 200.141 190.784 201.546 193.23C202.948 195.678 203.651 198.503 203.651 201.708C203.651 204.883 202.948 207.699 201.546 210.163C200.141 212.626 198.153 214.536 195.579 215.891C193.011 217.248 190.033 217.924 186.646 217.924H174.496V185.481H186.646ZM186.132 211.083C189.121 211.083 191.444 210.27 193.103 208.644C194.768 207.012 195.603 204.698 195.603 201.708C195.603 198.718 194.768 196.396 193.103 194.736C191.444 193.071 189.121 192.237 186.132 192.237H182.389V211.083H186.132Z" fill="#FEFAF9"/>
<path d="M227.578 218.246C225.201 218.246 223.073 217.864 221.192 217.098C219.318 216.327 217.82 215.185 216.696 213.678C215.572 212.166 214.977 210.348 214.914 208.225H223.333C223.452 209.421 223.865 210.339 224.576 210.976C225.285 211.607 226.209 211.92 227.351 211.92C228.523 211.92 229.446 211.651 230.125 211.107C230.801 210.566 231.142 209.822 231.142 208.871C231.142 208.067 230.869 207.406 230.328 206.886C229.784 206.36 229.121 205.929 228.331 205.594C227.548 205.254 226.436 204.865 224.995 204.434C222.896 203.789 221.186 203.143 219.865 202.497C218.54 201.846 217.401 200.889 216.445 199.627C215.488 198.36 215.01 196.709 215.01 194.676C215.01 191.663 216.101 189.304 218.286 187.597C220.478 185.884 223.327 185.026 226.837 185.026C230.406 185.026 233.285 185.884 235.47 187.597C237.662 189.304 238.834 191.681 238.986 194.724H230.448C230.382 193.681 229.997 192.859 229.288 192.261C228.576 191.657 227.668 191.352 226.561 191.352C225.605 191.352 224.831 191.609 224.242 192.117C223.659 192.629 223.369 193.358 223.369 194.306C223.369 195.358 223.862 196.18 224.851 196.769C225.838 197.352 227.378 197.983 229.467 198.659C231.563 199.37 233.264 200.046 234.574 200.692C235.889 201.337 237.019 202.279 237.97 203.514C238.926 204.742 239.405 206.324 239.405 208.261C239.405 210.112 238.932 211.795 237.994 213.308C237.061 214.814 235.698 216.016 233.904 216.907C232.116 217.801 230.008 218.246 227.578 218.246Z" fill="#FEFAF9"/>
<path d="M154.25 112.549C155.61 111.798 156.839 110.857 157.906 109.739C159.488 108.07 160.645 106.247 161.44 104.172C162.19 102.163 162.558 99.9448 162.54 97.577C162.519 95.269 162.104 93.0717 161.3 91.0358C160.498 89.0118 159.294 87.1284 157.721 85.4303C156.077 83.6844 154.107 82.357 151.864 81.4811C149.712 80.641 147.251 80.2135 144.561 80.2135H120.492L119.882 123.144H121.048V123.15H125.58H126.62V123.144H127.203L127.688 92.3811L170.573 141.981L170.953 142.421L170.989 142.457L171.168 142.549H171.165L176.648 137.835L154.253 112.552L154.25 112.549ZM150.411 106.351C150.068 106.525 149.709 106.671 149.35 106.797L133.069 87.5469H144.552C146.34 87.5469 147.918 87.81 149.243 88.3272C150.48 88.7996 151.509 89.4902 152.391 90.4379C153.332 91.4603 154.053 92.5844 154.525 93.7743C155 94.9671 155.252 96.2795 155.264 97.6697C155.279 99.1077 155.06 100.432 154.612 101.613C154.175 102.761 153.512 103.804 152.642 104.71C151.984 105.389 151.237 105.936 150.414 106.351H150.411Z" fill="white"/>
<mask id="mask0_225_528" style="mask-type:luminance" maskUnits="userSpaceOnUse" x="86" y="52" width="115" height="115">
<path d="M86.3477 52.2429H200.574V166.469H86.3477V52.2429Z" fill="white"/>
</mask>
<g mask="url(#mask0_225_528)">
<path d="M183.907 68.9876C173.132 58.1922 158.779 52.2429 143.496 52.2429C128.214 52.2429 113.87 58.1892 103.098 68.9876C92.2999 79.759 86.3506 94.136 86.3506 109.392C86.3506 124.651 92.2969 138.995 103.092 149.796C113.864 160.591 128.214 166.541 143.499 166.541L144.038 166.535C159.096 166.397 173.231 160.466 183.904 149.796C194.699 139.022 200.648 124.645 200.648 109.389C200.648 94.133 194.702 79.783 183.907 68.9876ZM178.253 144.146C168.974 153.428 156.627 158.541 143.499 158.541C130.369 158.541 118.028 153.428 108.746 144.146C99.4629 134.866 94.3507 122.522 94.3507 109.392C94.3507 96.2645 99.4629 83.9235 108.746 74.6379C118.025 65.3552 130.369 60.246 143.499 60.246C156.627 60.246 168.968 65.3552 178.253 74.6379C187.246 83.6365 192.322 95.4962 192.63 108.166C192.639 108.576 192.648 108.982 192.648 109.392C192.648 122.522 187.536 134.863 178.253 144.146Z" fill="white"/>
</g>
</svg>
